<mxfile host="app.diagrams.net" modified="2024-05-17T07:50:34.003Z" agent="Mozilla/5.0 (Windows NT 10.0; Win64; x64) AppleWebKit/537.36 (KHTML, like Gecko) Chrome/125.0.0.0 Safari/537.36" etag="PW03oRJr8fput5utowvI" version="24.4.3" type="device">
  <diagram name="Страница — 1" id="ELvCHyeQTy3X51MUHxV3">
    <mxGraphModel dx="1473" dy="743" grid="1" gridSize="10" guides="1" tooltips="1" connect="1" arrows="1" fold="1" page="1" pageScale="1" pageWidth="827" pageHeight="1169" math="0" shadow="0">
      <root>
        <mxCell id="0" />
        <mxCell id="1" parent="0" />
        <mxCell id="IKY1CrUDL_RfUkueZ7KA-1" value="администратор" style="rounded=0;whiteSpace=wrap;html=1;" parent="1" vertex="1">
          <mxGeometry x="-240" y="230" width="120" height="60" as="geometry" />
        </mxCell>
        <mxCell id="IKY1CrUDL_RfUkueZ7KA-2" value="покупатель" style="rounded=0;whiteSpace=wrap;html=1;" parent="1" vertex="1">
          <mxGeometry x="-710" y="230" width="120" height="60" as="geometry" />
        </mxCell>
        <mxCell id="IKY1CrUDL_RfUkueZ7KA-3" value="" style="rounded=0;whiteSpace=wrap;html=1;" parent="1" vertex="1">
          <mxGeometry x="-480" y="230" width="120" height="60" as="geometry" />
        </mxCell>
        <mxCell id="IKY1CrUDL_RfUkueZ7KA-4" value="" style="rounded=0;whiteSpace=wrap;html=1;" parent="1" vertex="1">
          <mxGeometry x="-480" y="420" width="120" height="60" as="geometry" />
        </mxCell>
        <mxCell id="IKY1CrUDL_RfUkueZ7KA-5" value="менеджер" style="rounded=0;whiteSpace=wrap;html=1;" parent="1" vertex="1">
          <mxGeometry x="-480" y="290" width="120" height="20" as="geometry" />
        </mxCell>
        <mxCell id="IKY1CrUDL_RfUkueZ7KA-6" value="" style="endArrow=classic;html=1;rounded=0;entryX=0;entryY=0;entryDx=0;entryDy=0;" parent="1" target="IKY1CrUDL_RfUkueZ7KA-3" edge="1">
          <mxGeometry width="50" height="50" relative="1" as="geometry">
            <mxPoint x="-590" y="230" as="sourcePoint" />
            <mxPoint x="-540" y="180" as="targetPoint" />
          </mxGeometry>
        </mxCell>
        <mxCell id="IKY1CrUDL_RfUkueZ7KA-7" value="" style="endArrow=classic;html=1;rounded=0;entryX=0;entryY=0;entryDx=0;entryDy=0;" parent="1" target="IKY1CrUDL_RfUkueZ7KA-1" edge="1">
          <mxGeometry width="50" height="50" relative="1" as="geometry">
            <mxPoint x="-360" y="230" as="sourcePoint" />
            <mxPoint x="-310" y="180" as="targetPoint" />
          </mxGeometry>
        </mxCell>
        <mxCell id="IKY1CrUDL_RfUkueZ7KA-8" value="" style="endArrow=classic;html=1;rounded=0;entryX=1;entryY=0;entryDx=0;entryDy=0;" parent="1" target="IKY1CrUDL_RfUkueZ7KA-4" edge="1">
          <mxGeometry width="50" height="50" relative="1" as="geometry">
            <mxPoint x="-360" y="310" as="sourcePoint" />
            <mxPoint x="-310" y="260" as="targetPoint" />
          </mxGeometry>
        </mxCell>
        <mxCell id="IKY1CrUDL_RfUkueZ7KA-9" value="" style="endArrow=classic;html=1;rounded=0;entryX=0;entryY=1;entryDx=0;entryDy=0;" parent="1" target="IKY1CrUDL_RfUkueZ7KA-5" edge="1">
          <mxGeometry width="50" height="50" relative="1" as="geometry">
            <mxPoint x="-480" y="420" as="sourcePoint" />
            <mxPoint x="-430" y="370" as="targetPoint" />
          </mxGeometry>
        </mxCell>
        <mxCell id="IKY1CrUDL_RfUkueZ7KA-10" value="" style="endArrow=classic;html=1;rounded=0;entryX=1;entryY=0;entryDx=0;entryDy=0;exitX=0;exitY=1;exitDx=0;exitDy=0;" parent="1" source="IKY1CrUDL_RfUkueZ7KA-1" target="IKY1CrUDL_RfUkueZ7KA-5" edge="1">
          <mxGeometry width="50" height="50" relative="1" as="geometry">
            <mxPoint x="-330" y="340" as="sourcePoint" />
            <mxPoint x="-280" y="290" as="targetPoint" />
          </mxGeometry>
        </mxCell>
        <mxCell id="IKY1CrUDL_RfUkueZ7KA-11" value="" style="endArrow=classic;html=1;rounded=0;exitX=0;exitY=0;exitDx=0;exitDy=0;" parent="1" source="IKY1CrUDL_RfUkueZ7KA-5" edge="1">
          <mxGeometry width="50" height="50" relative="1" as="geometry">
            <mxPoint x="-640" y="340" as="sourcePoint" />
            <mxPoint x="-590" y="290" as="targetPoint" />
          </mxGeometry>
        </mxCell>
        <mxCell id="IKY1CrUDL_RfUkueZ7KA-12" value="оформить заявку" style="rounded=0;whiteSpace=wrap;html=1;" parent="1" vertex="1">
          <mxGeometry x="-480" y="250" width="120" height="30" as="geometry" />
        </mxCell>
        <mxCell id="IKY1CrUDL_RfUkueZ7KA-13" value="информация о контактных данных" style="text;html=1;align=center;verticalAlign=middle;whiteSpace=wrap;rounded=0;" parent="1" vertex="1">
          <mxGeometry x="-600" y="190" width="120" height="30" as="geometry" />
        </mxCell>
        <mxCell id="IKY1CrUDL_RfUkueZ7KA-14" value="подтверждение заявки" style="text;html=1;align=center;verticalAlign=middle;whiteSpace=wrap;rounded=0;" parent="1" vertex="1">
          <mxGeometry x="-565" y="290" width="60" height="30" as="geometry" />
        </mxCell>
        <mxCell id="IKY1CrUDL_RfUkueZ7KA-15" value="сообщение о запросе" style="text;html=1;align=center;verticalAlign=middle;whiteSpace=wrap;rounded=0;" parent="1" vertex="1">
          <mxGeometry x="-330" y="200" width="60" height="30" as="geometry" />
        </mxCell>
        <mxCell id="IKY1CrUDL_RfUkueZ7KA-16" value="протокол об обслуживании" style="text;html=1;align=center;verticalAlign=middle;whiteSpace=wrap;rounded=0;" parent="1" vertex="1">
          <mxGeometry x="-350" y="290" width="110" height="30" as="geometry" />
        </mxCell>
        <mxCell id="IKY1CrUDL_RfUkueZ7KA-17" value="данные по текущему автомобилю/клиенту" style="text;html=1;align=center;verticalAlign=middle;whiteSpace=wrap;rounded=0;" parent="1" vertex="1">
          <mxGeometry x="-550" y="360" width="60" height="30" as="geometry" />
        </mxCell>
        <mxCell id="IKY1CrUDL_RfUkueZ7KA-19" value="база данных с данными о товарах, клиентах" style="rounded=0;whiteSpace=wrap;html=1;" parent="1" vertex="1">
          <mxGeometry x="-460" y="420" width="100" height="60" as="geometry" />
        </mxCell>
        <mxCell id="IKY1CrUDL_RfUkueZ7KA-20" value="запрос по текущему автомобилю/клиенту" style="text;html=1;align=center;verticalAlign=middle;whiteSpace=wrap;rounded=0;" parent="1" vertex="1">
          <mxGeometry x="-350" y="360" width="60" height="30" as="geometry" />
        </mxCell>
        <mxCell id="IKY1CrUDL_RfUkueZ7KA-35" value="диаграмма потоков" style="text;html=1;align=center;verticalAlign=middle;whiteSpace=wrap;rounded=0;" parent="1" vertex="1">
          <mxGeometry x="-510" y="100" width="180" height="30" as="geometry" />
        </mxCell>
        <mxCell id="IKY1CrUDL_RfUkueZ7KA-37" value="D1" style="rounded=0;whiteSpace=wrap;html=1;" parent="1" vertex="1">
          <mxGeometry x="-480" y="420" width="20" height="60" as="geometry" />
        </mxCell>
        <mxCell id="IKY1CrUDL_RfUkueZ7KA-38" value="1.1" style="rounded=0;whiteSpace=wrap;html=1;" parent="1" vertex="1">
          <mxGeometry x="-480" y="230" width="120" height="20" as="geometry" />
        </mxCell>
        <mxCell id="107RlDECEQJ4CAb8z_CH-2" value="" style="shape=cube;whiteSpace=wrap;html=1;boundedLbl=1;backgroundOutline=1;darkOpacity=0.05;darkOpacity2=0.1;" vertex="1" parent="1">
          <mxGeometry x="-740" y="1120" width="130" height="250" as="geometry" />
        </mxCell>
        <mxCell id="IKY1CrUDL_RfUkueZ7KA-33" value="WEB-&amp;nbsp; &amp;nbsp; &amp;nbsp;&lt;div&gt;browser&lt;/div&gt;" style="html=1;dropTarget=0;whiteSpace=wrap;" parent="1" vertex="1">
          <mxGeometry x="-705" y="1200" width="80" height="50" as="geometry" />
        </mxCell>
        <mxCell id="IKY1CrUDL_RfUkueZ7KA-34" value="" style="shape=module;jettyWidth=8;jettyHeight=4;" parent="IKY1CrUDL_RfUkueZ7KA-33" vertex="1">
          <mxGeometry x="1" width="22" height="20" relative="1" as="geometry">
            <mxPoint x="-29" y="7" as="offset" />
          </mxGeometry>
        </mxCell>
        <mxCell id="107RlDECEQJ4CAb8z_CH-3" value="APM отдела продаж" style="text;html=1;align=center;verticalAlign=middle;whiteSpace=wrap;rounded=0;fontSize=16;" vertex="1" parent="1">
          <mxGeometry x="-720" y="1160" width="110" height="30" as="geometry" />
        </mxCell>
        <mxCell id="107RlDECEQJ4CAb8z_CH-21" value="" style="shape=cube;whiteSpace=wrap;html=1;boundedLbl=1;backgroundOutline=1;darkOpacity=0.05;darkOpacity2=0.1;" vertex="1" parent="1">
          <mxGeometry x="-375" y="1130" width="130" height="240" as="geometry" />
        </mxCell>
        <mxCell id="107RlDECEQJ4CAb8z_CH-22" value="БД" style="html=1;dropTarget=0;whiteSpace=wrap;" vertex="1" parent="1">
          <mxGeometry x="-340" y="1200" width="80" height="50" as="geometry" />
        </mxCell>
        <mxCell id="107RlDECEQJ4CAb8z_CH-23" value="" style="shape=module;jettyWidth=8;jettyHeight=4;" vertex="1" parent="107RlDECEQJ4CAb8z_CH-22">
          <mxGeometry x="1" width="22" height="20" relative="1" as="geometry">
            <mxPoint x="-29" y="7" as="offset" />
          </mxGeometry>
        </mxCell>
        <mxCell id="107RlDECEQJ4CAb8z_CH-24" value="Сервер БД" style="text;html=1;align=center;verticalAlign=middle;whiteSpace=wrap;rounded=0;fontSize=16;" vertex="1" parent="1">
          <mxGeometry x="-355" y="1160" width="110" height="30" as="geometry" />
        </mxCell>
        <mxCell id="107RlDECEQJ4CAb8z_CH-27" value="" style="shape=cube;whiteSpace=wrap;html=1;boundedLbl=1;backgroundOutline=1;darkOpacity=0.05;darkOpacity2=0.1;" vertex="1" parent="1">
          <mxGeometry x="-375" y="1440" width="130" height="240" as="geometry" />
        </mxCell>
        <mxCell id="107RlDECEQJ4CAb8z_CH-28" value="WEB-&amp;nbsp; &amp;nbsp; &amp;nbsp;&lt;div&gt;browser&lt;/div&gt;" style="html=1;dropTarget=0;whiteSpace=wrap;" vertex="1" parent="1">
          <mxGeometry x="-340" y="1510" width="80" height="50" as="geometry" />
        </mxCell>
        <mxCell id="107RlDECEQJ4CAb8z_CH-29" value="" style="shape=module;jettyWidth=8;jettyHeight=4;" vertex="1" parent="107RlDECEQJ4CAb8z_CH-28">
          <mxGeometry x="1" width="22" height="20" relative="1" as="geometry">
            <mxPoint x="-29" y="7" as="offset" />
          </mxGeometry>
        </mxCell>
        <mxCell id="107RlDECEQJ4CAb8z_CH-30" value="&amp;nbsp;WEB-клиент" style="text;html=1;align=center;verticalAlign=middle;whiteSpace=wrap;rounded=0;fontSize=16;" vertex="1" parent="1">
          <mxGeometry x="-355" y="1470" width="110" height="30" as="geometry" />
        </mxCell>
        <mxCell id="107RlDECEQJ4CAb8z_CH-31" value="CSS&amp;nbsp; &amp;nbsp;" style="html=1;dropTarget=0;whiteSpace=wrap;" vertex="1" parent="1">
          <mxGeometry x="-335" y="1590" width="80" height="50" as="geometry" />
        </mxCell>
        <mxCell id="107RlDECEQJ4CAb8z_CH-32" value="" style="shape=module;jettyWidth=8;jettyHeight=4;" vertex="1" parent="107RlDECEQJ4CAb8z_CH-31">
          <mxGeometry x="1" width="22" height="20" relative="1" as="geometry">
            <mxPoint x="-29" y="7" as="offset" />
          </mxGeometry>
        </mxCell>
        <mxCell id="107RlDECEQJ4CAb8z_CH-34" value="" style="shape=cube;whiteSpace=wrap;html=1;boundedLbl=1;backgroundOutline=1;darkOpacity=0.05;darkOpacity2=0.1;" vertex="1" parent="1">
          <mxGeometry x="-740" y="1440" width="220" height="260" as="geometry" />
        </mxCell>
        <mxCell id="107RlDECEQJ4CAb8z_CH-35" value="PHP-&amp;nbsp; &amp;nbsp;&amp;nbsp;&lt;div&gt;&lt;div&gt;интерпретатор&lt;/div&gt;&lt;/div&gt;" style="html=1;dropTarget=0;whiteSpace=wrap;" vertex="1" parent="1">
          <mxGeometry x="-710" y="1510" width="120" height="40" as="geometry" />
        </mxCell>
        <mxCell id="107RlDECEQJ4CAb8z_CH-36" value="" style="shape=module;jettyWidth=8;jettyHeight=4;" vertex="1" parent="107RlDECEQJ4CAb8z_CH-35">
          <mxGeometry x="1" width="22" height="20" relative="1" as="geometry">
            <mxPoint x="-29" y="7" as="offset" />
          </mxGeometry>
        </mxCell>
        <mxCell id="107RlDECEQJ4CAb8z_CH-37" value="Сервер приложений" style="text;html=1;align=center;verticalAlign=middle;whiteSpace=wrap;rounded=0;fontSize=16;" vertex="1" parent="1">
          <mxGeometry x="-720" y="1470" width="200" height="30" as="geometry" />
        </mxCell>
        <mxCell id="107RlDECEQJ4CAb8z_CH-38" value="db.php" style="html=1;dropTarget=0;whiteSpace=wrap;" vertex="1" parent="1">
          <mxGeometry x="-660" y="1560" width="130" height="30" as="geometry" />
        </mxCell>
        <mxCell id="107RlDECEQJ4CAb8z_CH-39" value="" style="shape=module;jettyWidth=8;jettyHeight=4;" vertex="1" parent="107RlDECEQJ4CAb8z_CH-38">
          <mxGeometry x="1" width="22" height="20" relative="1" as="geometry">
            <mxPoint x="-29" y="7" as="offset" />
          </mxGeometry>
        </mxCell>
        <mxCell id="107RlDECEQJ4CAb8z_CH-40" value="client.csv" style="html=1;dropTarget=0;whiteSpace=wrap;" vertex="1" parent="1">
          <mxGeometry x="-700" y="1610" width="130" height="30" as="geometry" />
        </mxCell>
        <mxCell id="107RlDECEQJ4CAb8z_CH-41" value="" style="shape=module;jettyWidth=8;jettyHeight=4;" vertex="1" parent="107RlDECEQJ4CAb8z_CH-40">
          <mxGeometry x="1" width="22" height="20" relative="1" as="geometry">
            <mxPoint x="-29" y="7" as="offset" />
          </mxGeometry>
        </mxCell>
        <mxCell id="107RlDECEQJ4CAb8z_CH-42" value="auto.csv" style="html=1;dropTarget=0;whiteSpace=wrap;" vertex="1" parent="1">
          <mxGeometry x="-660" y="1660" width="130" height="30" as="geometry" />
        </mxCell>
        <mxCell id="107RlDECEQJ4CAb8z_CH-43" value="" style="shape=module;jettyWidth=8;jettyHeight=4;" vertex="1" parent="107RlDECEQJ4CAb8z_CH-42">
          <mxGeometry x="1" width="22" height="20" relative="1" as="geometry">
            <mxPoint x="-29" y="7" as="offset" />
          </mxGeometry>
        </mxCell>
        <mxCell id="107RlDECEQJ4CAb8z_CH-45" value="" style="endArrow=none;html=1;rounded=0;fontSize=12;startSize=8;endSize=8;curved=1;entryX=0;entryY=0;entryDx=0;entryDy=220;entryPerimeter=0;exitX=0;exitY=0;exitDx=200;exitDy=0;exitPerimeter=0;" edge="1" parent="1" source="107RlDECEQJ4CAb8z_CH-34" target="107RlDECEQJ4CAb8z_CH-21">
          <mxGeometry width="50" height="50" relative="1" as="geometry">
            <mxPoint x="-470" y="1430" as="sourcePoint" />
            <mxPoint x="-420" y="1380" as="targetPoint" />
          </mxGeometry>
        </mxCell>
        <mxCell id="107RlDECEQJ4CAb8z_CH-46" value="TCP/IP" style="edgeLabel;html=1;align=center;verticalAlign=middle;resizable=0;points=[];fontSize=12;" vertex="1" connectable="0" parent="107RlDECEQJ4CAb8z_CH-45">
          <mxGeometry x="0.0327" y="-2" relative="1" as="geometry">
            <mxPoint as="offset" />
          </mxGeometry>
        </mxCell>
        <mxCell id="107RlDECEQJ4CAb8z_CH-47" value="" style="endArrow=none;html=1;rounded=0;fontSize=12;startSize=8;endSize=8;curved=1;entryX=0;entryY=0.95;entryDx=0;entryDy=0;entryPerimeter=0;exitX=1;exitY=1;exitDx=0;exitDy=0;exitPerimeter=0;" edge="1" parent="1" source="107RlDECEQJ4CAb8z_CH-34" target="107RlDECEQJ4CAb8z_CH-27">
          <mxGeometry width="50" height="50" relative="1" as="geometry">
            <mxPoint x="-470" y="1430" as="sourcePoint" />
            <mxPoint x="-420" y="1380" as="targetPoint" />
          </mxGeometry>
        </mxCell>
        <mxCell id="107RlDECEQJ4CAb8z_CH-49" value="TCP/IP&lt;div&gt;http-запросы&lt;/div&gt;" style="edgeLabel;html=1;align=center;verticalAlign=middle;resizable=0;points=[];fontSize=12;" vertex="1" connectable="0" parent="107RlDECEQJ4CAb8z_CH-47">
          <mxGeometry x="-0.0153" y="-3" relative="1" as="geometry">
            <mxPoint as="offset" />
          </mxGeometry>
        </mxCell>
        <mxCell id="107RlDECEQJ4CAb8z_CH-50" value="" style="endArrow=none;html=1;rounded=0;fontSize=12;startSize=8;endSize=8;curved=1;entryX=0;entryY=0;entryDx=0;entryDy=220;entryPerimeter=0;exitX=0;exitY=0;exitDx=0;exitDy=0;exitPerimeter=0;" edge="1" parent="1" source="107RlDECEQJ4CAb8z_CH-34" target="107RlDECEQJ4CAb8z_CH-2">
          <mxGeometry width="50" height="50" relative="1" as="geometry">
            <mxPoint x="-470" y="1430" as="sourcePoint" />
            <mxPoint x="-420" y="1380" as="targetPoint" />
          </mxGeometry>
        </mxCell>
        <mxCell id="107RlDECEQJ4CAb8z_CH-51" value="http" style="edgeLabel;html=1;align=center;verticalAlign=middle;resizable=0;points=[];fontSize=12;" vertex="1" connectable="0" parent="107RlDECEQJ4CAb8z_CH-50">
          <mxGeometry y="1" relative="1" as="geometry">
            <mxPoint as="offset" />
          </mxGeometry>
        </mxCell>
        <mxCell id="107RlDECEQJ4CAb8z_CH-52" value="" style="endArrow=none;dashed=1;html=1;rounded=0;fontSize=12;startSize=8;endSize=8;curved=1;entryX=1;entryY=0;entryDx=0;entryDy=0;exitX=1;exitY=0;exitDx=0;exitDy=0;" edge="1" parent="1" source="107RlDECEQJ4CAb8z_CH-38" target="107RlDECEQJ4CAb8z_CH-35">
          <mxGeometry width="50" height="50" relative="1" as="geometry">
            <mxPoint x="-510" y="1540" as="sourcePoint" />
            <mxPoint x="-460" y="1490" as="targetPoint" />
          </mxGeometry>
        </mxCell>
        <mxCell id="107RlDECEQJ4CAb8z_CH-53" value="" style="endArrow=none;dashed=1;html=1;dashPattern=1 3;strokeWidth=2;rounded=0;fontSize=12;startSize=8;endSize=8;curved=1;entryX=0;entryY=1;entryDx=0;entryDy=0;exitX=0;exitY=0;exitDx=0;exitDy=0;" edge="1" parent="1" source="107RlDECEQJ4CAb8z_CH-40" target="107RlDECEQJ4CAb8z_CH-38">
          <mxGeometry width="50" height="50" relative="1" as="geometry">
            <mxPoint x="-580" y="1645" as="sourcePoint" />
            <mxPoint x="-520" y="1605" as="targetPoint" />
          </mxGeometry>
        </mxCell>
        <mxCell id="107RlDECEQJ4CAb8z_CH-54" value="" style="endArrow=none;dashed=1;html=1;rounded=0;fontSize=12;startSize=8;endSize=8;curved=1;entryX=1;entryY=1;entryDx=0;entryDy=0;exitX=1;exitY=0.25;exitDx=0;exitDy=0;" edge="1" parent="1" source="107RlDECEQJ4CAb8z_CH-42" target="107RlDECEQJ4CAb8z_CH-38">
          <mxGeometry width="50" height="50" relative="1" as="geometry">
            <mxPoint x="-570" y="1650" as="sourcePoint" />
            <mxPoint x="-520" y="1600" as="targetPoint" />
          </mxGeometry>
        </mxCell>
        <mxCell id="107RlDECEQJ4CAb8z_CH-113" value="Client Desktop" style="html=1;dropTarget=0;whiteSpace=wrap;" vertex="1" parent="1">
          <mxGeometry x="355" y="785" width="100" height="60" as="geometry" />
        </mxCell>
        <mxCell id="107RlDECEQJ4CAb8z_CH-114" value="" style="shape=module;jettyWidth=8;jettyHeight=4;" vertex="1" parent="107RlDECEQJ4CAb8z_CH-113">
          <mxGeometry x="1" width="20" height="20" relative="1" as="geometry">
            <mxPoint x="-27" y="7" as="offset" />
          </mxGeometry>
        </mxCell>
        <mxCell id="107RlDECEQJ4CAb8z_CH-115" value="Web Page" style="html=1;dropTarget=0;whiteSpace=wrap;" vertex="1" parent="1">
          <mxGeometry x="320" y="920" width="100" height="60" as="geometry" />
        </mxCell>
        <mxCell id="107RlDECEQJ4CAb8z_CH-116" value="" style="shape=module;jettyWidth=8;jettyHeight=4;" vertex="1" parent="107RlDECEQJ4CAb8z_CH-115">
          <mxGeometry x="1" width="20" height="20" relative="1" as="geometry">
            <mxPoint x="-27" y="7" as="offset" />
          </mxGeometry>
        </mxCell>
        <mxCell id="107RlDECEQJ4CAb8z_CH-119" value="Filter.php" style="html=1;dropTarget=0;whiteSpace=wrap;" vertex="1" parent="1">
          <mxGeometry x="-70" y="985" width="100" height="60" as="geometry" />
        </mxCell>
        <mxCell id="107RlDECEQJ4CAb8z_CH-120" value="" style="shape=module;jettyWidth=8;jettyHeight=4;" vertex="1" parent="107RlDECEQJ4CAb8z_CH-119">
          <mxGeometry x="1" width="20" height="20" relative="1" as="geometry">
            <mxPoint x="-27" y="7" as="offset" />
          </mxGeometry>
        </mxCell>
        <mxCell id="107RlDECEQJ4CAb8z_CH-121" value="Main" style="html=1;dropTarget=0;whiteSpace=wrap;" vertex="1" parent="1">
          <mxGeometry x="-10" y="890" width="100" height="60" as="geometry" />
        </mxCell>
        <mxCell id="107RlDECEQJ4CAb8z_CH-122" value="" style="shape=module;jettyWidth=8;jettyHeight=4;" vertex="1" parent="107RlDECEQJ4CAb8z_CH-121">
          <mxGeometry x="1" width="20" height="20" relative="1" as="geometry">
            <mxPoint x="-27" y="7" as="offset" />
          </mxGeometry>
        </mxCell>
        <mxCell id="107RlDECEQJ4CAb8z_CH-123" value="диаграмма компонентов" style="text;html=1;align=center;verticalAlign=middle;whiteSpace=wrap;rounded=0;" vertex="1" parent="1">
          <mxGeometry x="122" y="575" width="150" height="30" as="geometry" />
        </mxCell>
        <mxCell id="107RlDECEQJ4CAb8z_CH-126" value="Web Server&amp;nbsp; &amp;nbsp;" style="html=1;dropTarget=0;whiteSpace=wrap;" vertex="1" parent="1">
          <mxGeometry x="147" y="885" width="100" height="60" as="geometry" />
        </mxCell>
        <mxCell id="107RlDECEQJ4CAb8z_CH-127" value="" style="shape=module;jettyWidth=8;jettyHeight=4;" vertex="1" parent="107RlDECEQJ4CAb8z_CH-126">
          <mxGeometry x="1" width="20" height="20" relative="1" as="geometry">
            <mxPoint x="-27" y="7" as="offset" />
          </mxGeometry>
        </mxCell>
        <mxCell id="107RlDECEQJ4CAb8z_CH-130" value="Database" style="html=1;dropTarget=0;whiteSpace=wrap;" vertex="1" parent="1">
          <mxGeometry x="130" y="755" width="100" height="60" as="geometry" />
        </mxCell>
        <mxCell id="107RlDECEQJ4CAb8z_CH-131" value="" style="shape=module;jettyWidth=8;jettyHeight=4;" vertex="1" parent="107RlDECEQJ4CAb8z_CH-130">
          <mxGeometry x="1" width="20" height="20" relative="1" as="geometry">
            <mxPoint x="-27" y="7" as="offset" />
          </mxGeometry>
        </mxCell>
        <mxCell id="107RlDECEQJ4CAb8z_CH-132" value="" style="ellipse;whiteSpace=wrap;html=1;align=center;aspect=fixed;fillColor=none;strokeColor=none;resizable=0;perimeter=centerPerimeter;rotatable=0;allowArrows=0;points=[];outlineConnect=1;" vertex="1" parent="1">
          <mxGeometry x="230" y="745" width="10" height="10" as="geometry" />
        </mxCell>
        <mxCell id="107RlDECEQJ4CAb8z_CH-133" value="" style="rounded=0;orthogonalLoop=1;jettySize=auto;html=1;endArrow=halfCircle;endFill=0;endSize=6;strokeWidth=1;sketch=0;fontSize=12;curved=1;exitX=0.75;exitY=0;exitDx=0;exitDy=0;" edge="1" parent="1" source="107RlDECEQJ4CAb8z_CH-121" target="107RlDECEQJ4CAb8z_CH-135">
          <mxGeometry relative="1" as="geometry">
            <mxPoint x="140" y="730" as="sourcePoint" />
          </mxGeometry>
        </mxCell>
        <mxCell id="107RlDECEQJ4CAb8z_CH-134" value="" style="rounded=0;orthogonalLoop=1;jettySize=auto;html=1;endArrow=oval;endFill=0;sketch=0;sourcePerimeterSpacing=0;targetPerimeterSpacing=0;endSize=10;fontSize=12;curved=1;exitX=0;exitY=0;exitDx=0;exitDy=0;entryX=0.039;entryY=1.094;entryDx=0;entryDy=0;entryPerimeter=0;" edge="1" parent="1" source="107RlDECEQJ4CAb8z_CH-130" target="107RlDECEQJ4CAb8z_CH-135">
          <mxGeometry relative="1" as="geometry">
            <mxPoint x="100" y="730" as="sourcePoint" />
          </mxGeometry>
        </mxCell>
        <mxCell id="107RlDECEQJ4CAb8z_CH-135" value="" style="ellipse;whiteSpace=wrap;html=1;align=center;aspect=fixed;fillColor=none;strokeColor=none;resizable=0;perimeter=centerPerimeter;rotatable=0;allowArrows=0;points=[];outlineConnect=1;" vertex="1" parent="1">
          <mxGeometry x="95" y="795" width="10" height="10" as="geometry" />
        </mxCell>
        <mxCell id="107RlDECEQJ4CAb8z_CH-136" value="" style="rounded=0;orthogonalLoop=1;jettySize=auto;html=1;endArrow=halfCircle;endFill=0;endSize=6;strokeWidth=1;sketch=0;fontSize=12;curved=1;exitX=0.5;exitY=0;exitDx=0;exitDy=0;entryX=0.5;entryY=1;entryDx=0;entryDy=0;" edge="1" parent="1" source="107RlDECEQJ4CAb8z_CH-130">
          <mxGeometry relative="1" as="geometry">
            <mxPoint x="205" y="730" as="sourcePoint" />
            <mxPoint x="197" y="685" as="targetPoint" />
          </mxGeometry>
        </mxCell>
        <mxCell id="107RlDECEQJ4CAb8z_CH-138" value="" style="ellipse;whiteSpace=wrap;html=1;align=center;aspect=fixed;fillColor=none;strokeColor=none;resizable=0;perimeter=centerPerimeter;rotatable=0;allowArrows=0;points=[];outlineConnect=1;" vertex="1" parent="1">
          <mxGeometry x="180" y="725" width="10" height="10" as="geometry" />
        </mxCell>
        <mxCell id="107RlDECEQJ4CAb8z_CH-139" value="" style="rounded=0;orthogonalLoop=1;jettySize=auto;html=1;endArrow=halfCircle;endFill=0;endSize=6;strokeWidth=1;sketch=0;fontSize=12;curved=1;" edge="1" parent="1" source="107RlDECEQJ4CAb8z_CH-119" target="107RlDECEQJ4CAb8z_CH-141">
          <mxGeometry relative="1" as="geometry">
            <mxPoint x="45" y="750" as="sourcePoint" />
          </mxGeometry>
        </mxCell>
        <mxCell id="107RlDECEQJ4CAb8z_CH-140" value="" style="rounded=0;orthogonalLoop=1;jettySize=auto;html=1;endArrow=oval;endFill=0;sketch=0;sourcePerimeterSpacing=0;targetPerimeterSpacing=0;endSize=10;fontSize=12;curved=1;exitX=0.5;exitY=1;exitDx=0;exitDy=0;" edge="1" parent="1" source="107RlDECEQJ4CAb8z_CH-121" target="107RlDECEQJ4CAb8z_CH-141">
          <mxGeometry relative="1" as="geometry">
            <mxPoint x="5" y="750" as="sourcePoint" />
          </mxGeometry>
        </mxCell>
        <mxCell id="107RlDECEQJ4CAb8z_CH-141" value="" style="ellipse;whiteSpace=wrap;html=1;align=center;aspect=fixed;fillColor=none;strokeColor=none;resizable=0;perimeter=centerPerimeter;rotatable=0;allowArrows=0;points=[];outlineConnect=1;" vertex="1" parent="1">
          <mxGeometry x="10" y="965" width="10" height="10" as="geometry" />
        </mxCell>
        <mxCell id="107RlDECEQJ4CAb8z_CH-142" value="" style="rounded=0;orthogonalLoop=1;jettySize=auto;html=1;endArrow=halfCircle;endFill=0;endSize=6;strokeWidth=1;sketch=0;fontSize=12;curved=1;exitX=0;exitY=0.5;exitDx=0;exitDy=0;" edge="1" parent="1" source="107RlDECEQJ4CAb8z_CH-126" target="107RlDECEQJ4CAb8z_CH-144">
          <mxGeometry relative="1" as="geometry">
            <mxPoint x="150" y="915" as="sourcePoint" />
          </mxGeometry>
        </mxCell>
        <mxCell id="107RlDECEQJ4CAb8z_CH-143" value="" style="rounded=0;orthogonalLoop=1;jettySize=auto;html=1;endArrow=oval;endFill=0;sketch=0;sourcePerimeterSpacing=0;targetPerimeterSpacing=0;endSize=10;fontSize=12;curved=1;exitX=1;exitY=0.5;exitDx=0;exitDy=0;" edge="1" parent="1" source="107RlDECEQJ4CAb8z_CH-121" target="107RlDECEQJ4CAb8z_CH-144">
          <mxGeometry relative="1" as="geometry">
            <mxPoint x="110" y="915" as="sourcePoint" />
          </mxGeometry>
        </mxCell>
        <mxCell id="107RlDECEQJ4CAb8z_CH-144" value="" style="ellipse;whiteSpace=wrap;html=1;align=center;aspect=fixed;fillColor=none;strokeColor=none;resizable=0;perimeter=centerPerimeter;rotatable=0;allowArrows=0;points=[];outlineConnect=1;" vertex="1" parent="1">
          <mxGeometry x="125" y="910" width="10" height="10" as="geometry" />
        </mxCell>
        <mxCell id="107RlDECEQJ4CAb8z_CH-145" value="" style="rounded=0;orthogonalLoop=1;jettySize=auto;html=1;endArrow=halfCircle;endFill=0;endSize=6;strokeWidth=1;sketch=0;fontSize=12;curved=1;exitX=-0.008;exitY=0.628;exitDx=0;exitDy=0;exitPerimeter=0;" edge="1" parent="1" source="107RlDECEQJ4CAb8z_CH-113" target="107RlDECEQJ4CAb8z_CH-147">
          <mxGeometry relative="1" as="geometry">
            <mxPoint x="287" y="890" as="sourcePoint" />
          </mxGeometry>
        </mxCell>
        <mxCell id="107RlDECEQJ4CAb8z_CH-146" value="" style="rounded=0;orthogonalLoop=1;jettySize=auto;html=1;endArrow=oval;endFill=0;sketch=0;sourcePerimeterSpacing=0;targetPerimeterSpacing=0;endSize=10;fontSize=12;curved=1;" edge="1" parent="1" target="107RlDECEQJ4CAb8z_CH-147">
          <mxGeometry relative="1" as="geometry">
            <mxPoint x="247" y="890" as="sourcePoint" />
          </mxGeometry>
        </mxCell>
        <mxCell id="107RlDECEQJ4CAb8z_CH-147" value="" style="ellipse;whiteSpace=wrap;html=1;align=center;aspect=fixed;fillColor=none;strokeColor=none;resizable=0;perimeter=centerPerimeter;rotatable=0;allowArrows=0;points=[];outlineConnect=1;" vertex="1" parent="1">
          <mxGeometry x="262" y="885" width="10" height="10" as="geometry" />
        </mxCell>
        <mxCell id="107RlDECEQJ4CAb8z_CH-148" value="" style="rounded=0;orthogonalLoop=1;jettySize=auto;html=1;endArrow=halfCircle;endFill=0;endSize=6;strokeWidth=1;sketch=0;fontSize=12;curved=1;exitX=0;exitY=0;exitDx=0;exitDy=0;" edge="1" parent="1" source="107RlDECEQJ4CAb8z_CH-115" target="107RlDECEQJ4CAb8z_CH-150">
          <mxGeometry relative="1" as="geometry">
            <mxPoint x="287" y="925" as="sourcePoint" />
          </mxGeometry>
        </mxCell>
        <mxCell id="107RlDECEQJ4CAb8z_CH-149" value="" style="rounded=0;orthogonalLoop=1;jettySize=auto;html=1;endArrow=oval;endFill=0;sketch=0;sourcePerimeterSpacing=0;targetPerimeterSpacing=0;endSize=10;fontSize=12;curved=1;" edge="1" parent="1" target="107RlDECEQJ4CAb8z_CH-150">
          <mxGeometry relative="1" as="geometry">
            <mxPoint x="247" y="925" as="sourcePoint" />
          </mxGeometry>
        </mxCell>
        <mxCell id="107RlDECEQJ4CAb8z_CH-150" value="" style="ellipse;whiteSpace=wrap;html=1;align=center;aspect=fixed;fillColor=none;strokeColor=none;resizable=0;perimeter=centerPerimeter;rotatable=0;allowArrows=0;points=[];outlineConnect=1;" vertex="1" parent="1">
          <mxGeometry x="262" y="920" width="10" height="10" as="geometry" />
        </mxCell>
        <mxCell id="107RlDECEQJ4CAb8z_CH-151" value="" style="rounded=0;orthogonalLoop=1;jettySize=auto;html=1;endArrow=halfCircle;endFill=0;endSize=6;strokeWidth=1;sketch=0;fontSize=12;curved=1;exitX=1;exitY=0;exitDx=0;exitDy=0;" edge="1" parent="1" source="107RlDECEQJ4CAb8z_CH-130">
          <mxGeometry relative="1" as="geometry">
            <mxPoint x="320" y="690" as="sourcePoint" />
            <mxPoint x="290" y="690" as="targetPoint" />
          </mxGeometry>
        </mxCell>
        <mxCell id="107RlDECEQJ4CAb8z_CH-153" value="" style="ellipse;whiteSpace=wrap;html=1;align=center;aspect=fixed;fillColor=none;strokeColor=none;resizable=0;perimeter=centerPerimeter;rotatable=0;allowArrows=0;points=[];outlineConnect=1;" vertex="1" parent="1">
          <mxGeometry x="295" y="685" width="10" height="10" as="geometry" />
        </mxCell>
        <mxCell id="107RlDECEQJ4CAb8z_CH-154" value="" style="rounded=0;orthogonalLoop=1;jettySize=auto;html=1;endArrow=halfCircle;endFill=0;endSize=6;strokeWidth=1;sketch=0;fontSize=12;curved=1;exitX=1;exitY=0.5;exitDx=0;exitDy=0;" edge="1" parent="1" source="107RlDECEQJ4CAb8z_CH-130">
          <mxGeometry relative="1" as="geometry">
            <mxPoint x="360" y="770" as="sourcePoint" />
            <mxPoint x="350" y="740" as="targetPoint" />
          </mxGeometry>
        </mxCell>
        <mxCell id="107RlDECEQJ4CAb8z_CH-156" value="" style="ellipse;whiteSpace=wrap;html=1;align=center;aspect=fixed;fillColor=none;strokeColor=none;resizable=0;perimeter=centerPerimeter;rotatable=0;allowArrows=0;points=[];outlineConnect=1;" vertex="1" parent="1">
          <mxGeometry x="320" y="745" width="10" height="10" as="geometry" />
        </mxCell>
        <mxCell id="107RlDECEQJ4CAb8z_CH-161" value="" style="verticalLabelPosition=bottom;verticalAlign=top;html=1;shape=mxgraph.basic.rect;fillColor2=none;strokeWidth=1;size=0;indent=0;" vertex="1" parent="1">
          <mxGeometry x="130" y="755" width="10" height="10" as="geometry" />
        </mxCell>
        <mxCell id="107RlDECEQJ4CAb8z_CH-162" value="" style="verticalLabelPosition=bottom;verticalAlign=top;html=1;shape=mxgraph.basic.rect;fillColor2=none;strokeWidth=1;size=0;indent=0;" vertex="1" parent="1">
          <mxGeometry x="147" y="910" width="10" height="10" as="geometry" />
        </mxCell>
        <mxCell id="107RlDECEQJ4CAb8z_CH-163" value="" style="verticalLabelPosition=bottom;verticalAlign=top;html=1;shape=mxgraph.basic.rect;fillColor2=none;strokeWidth=1;size=0;indent=0;" vertex="1" parent="1">
          <mxGeometry y="985" width="10" height="10" as="geometry" />
        </mxCell>
        <mxCell id="107RlDECEQJ4CAb8z_CH-164" value="Registration.db&amp;nbsp; &amp;nbsp;" style="html=1;dropTarget=0;whiteSpace=wrap;" vertex="1" parent="1">
          <mxGeometry x="147" y="625" width="100" height="60" as="geometry" />
        </mxCell>
        <mxCell id="107RlDECEQJ4CAb8z_CH-165" value="" style="shape=module;jettyWidth=8;jettyHeight=4;" vertex="1" parent="107RlDECEQJ4CAb8z_CH-164">
          <mxGeometry x="1" width="20" height="20" relative="1" as="geometry">
            <mxPoint x="-27" y="7" as="offset" />
          </mxGeometry>
        </mxCell>
        <mxCell id="107RlDECEQJ4CAb8z_CH-166" value="Auto.csv" style="html=1;dropTarget=0;whiteSpace=wrap;" vertex="1" parent="1">
          <mxGeometry x="272" y="625" width="100" height="60" as="geometry" />
        </mxCell>
        <mxCell id="107RlDECEQJ4CAb8z_CH-167" value="" style="shape=module;jettyWidth=8;jettyHeight=4;" vertex="1" parent="107RlDECEQJ4CAb8z_CH-166">
          <mxGeometry x="1" width="20" height="20" relative="1" as="geometry">
            <mxPoint x="-27" y="7" as="offset" />
          </mxGeometry>
        </mxCell>
        <mxCell id="107RlDECEQJ4CAb8z_CH-168" value="Clients.csv" style="html=1;dropTarget=0;whiteSpace=wrap;" vertex="1" parent="1">
          <mxGeometry x="355" y="705" width="100" height="60" as="geometry" />
        </mxCell>
        <mxCell id="107RlDECEQJ4CAb8z_CH-169" value="" style="shape=module;jettyWidth=8;jettyHeight=4;" vertex="1" parent="107RlDECEQJ4CAb8z_CH-168">
          <mxGeometry x="1" width="20" height="20" relative="1" as="geometry">
            <mxPoint x="-27" y="7" as="offset" />
          </mxGeometry>
        </mxCell>
      </root>
    </mxGraphModel>
  </diagram>
</mxfile>
